<svg width="24" height="25" viewBox="0 0 24 25" fill="none" xmlns="http://www.w3.org/2000/svg">
<g id="List">
<path id="Vector" fill-rule="evenodd" clip-rule="evenodd" d="M3.75049 17.5092C3.75049 17.3103 3.82951 17.1196 3.97016 16.9789C4.11081 16.8382 4.30158 16.7592 4.50049 16.7592H19.5005C19.6994 16.7592 19.8902 16.8382 20.0308 16.9789C20.1715 17.1196 20.2505 17.3103 20.2505 17.5092C20.2505 17.7081 20.1715 17.8989 20.0308 18.0396C19.8902 18.1802 19.6994 18.2592 19.5005 18.2592H4.50049C4.30158 18.2592 4.11081 18.1802 3.97016 18.0396C3.82951 17.8989 3.75049 17.7081 3.75049 17.5092ZM3.75049 11.5092C3.75049 11.3103 3.82951 11.1196 3.97016 10.9789C4.11081 10.8382 4.30158 10.7592 4.50049 10.7592H19.5005C19.6994 10.7592 19.8902 10.8382 20.0308 10.9789C20.1715 11.1196 20.2505 11.3103 20.2505 11.5092C20.2505 11.7081 20.1715 11.8989 20.0308 12.0396C19.8902 12.1802 19.6994 12.2592 19.5005 12.2592H4.50049C4.30158 12.2592 4.11081 12.1802 3.97016 12.0396C3.82951 11.8989 3.75049 11.7081 3.75049 11.5092ZM3.75049 5.50923C3.75049 5.31032 3.82951 5.11955 3.97016 4.9789C4.11081 4.83825 4.30158 4.75923 4.50049 4.75923H19.5005C19.6994 4.75923 19.8902 4.83825 20.0308 4.9789C20.1715 5.11955 20.2505 5.31032 20.2505 5.50923C20.2505 5.70814 20.1715 5.89891 20.0308 6.03956C19.8902 6.18021 19.6994 6.25923 19.5005 6.25923H4.50049C4.30158 6.25923 4.11081 6.18021 3.97016 6.03956C3.82951 5.89891 3.75049 5.70814 3.75049 5.50923Z" fill="#2F2F2F"/>
</g>
</svg>
