<svg width="21" height="21" viewBox="0 0 21 21" fill="none" xmlns="http://www.w3.org/2000/svg">
<g id="Question square" clip-path="url(#clip0_613_5913)">
<path id="Vector" fill-rule="evenodd" clip-rule="evenodd" d="M17.6423 1.50923H2.64233C2.31081 1.50923 1.99287 1.64093 1.75845 1.87535C1.52403 2.10977 1.39233 2.42771 1.39233 2.75923V17.7592C1.39233 18.0908 1.52403 18.4087 1.75845 18.6431C1.99287 18.8775 2.31081 19.0092 2.64233 19.0092H17.6423C17.9739 19.0092 18.2918 18.8775 18.5262 18.6431C18.7606 18.4087 18.8923 18.0908 18.8923 17.7592V2.75923C18.8923 2.42771 18.7606 2.10977 18.5262 1.87535C18.2918 1.64093 17.9739 1.50923 17.6423 1.50923ZM2.64233 0.259232C1.97929 0.259232 1.34341 0.522624 0.874567 0.991465C0.405726 1.46031 0.142334 2.09619 0.142334 2.75923L0.142334 17.7592C0.142334 18.4223 0.405726 19.0582 0.874567 19.527C1.34341 19.9958 1.97929 20.2592 2.64233 20.2592H17.6423C18.3054 20.2592 18.9413 19.9958 19.4101 19.527C19.8789 19.0582 20.1423 18.4223 20.1423 17.7592V2.75923C20.1423 2.09619 19.8789 1.46031 19.4101 0.991465C18.9413 0.522624 18.3054 0.259232 17.6423 0.259232L2.64233 0.259232Z" fill="#3083FF"/>
<path id="Vector_2" d="M6.70483 7.80048H8.35483C8.35483 6.82423 8.92733 6.07048 10.0548 6.07048C10.9111 6.07048 11.6961 6.49923 11.6961 7.53048C11.6961 8.32423 11.2286 8.68923 10.4898 9.24423C9.64858 9.85548 8.98233 10.5692 9.02983 11.728L9.03858 12.3067H10.6723V11.863C10.6723 10.9655 11.0136 10.7042 11.9348 10.0055C12.6961 9.42673 13.4898 8.78423 13.4898 7.43548C13.4898 5.54673 11.8948 4.63423 10.1486 4.63423C8.49108 4.63423 6.66608 5.44298 6.70608 7.80048H6.70483ZM8.65733 14.6955C8.65733 15.3617 9.18858 15.8542 9.91983 15.8542C10.6811 15.8542 11.2048 15.3617 11.2048 14.6955C11.2048 14.0055 10.6798 13.5205 9.91858 13.5205C9.18858 13.5205 8.65733 14.0055 8.65733 14.6955Z" fill="#3083FF"/>
</g>
<defs>
<clipPath id="clip0_613_5913">
<rect width="20" height="20" fill="white" transform="translate(0.142334 0.259232)"/>
</clipPath>
</defs>
</svg>
