<svg width="46" height="35" viewBox="0 0 46 35" fill="none" xmlns="http://www.w3.org/2000/svg">
<g id="digi-logo">
<g id="digi">
<path d="M7.28997 13.5499C6.0003 13.5499 5.02686 13.1283 4.36962 12.285C3.71239 11.4418 3.36517 10.3753 3.32797 9.08568L3.30937 8.52765L3.32797 7.96963C3.36517 6.69236 3.71239 5.63211 4.36962 4.78887C5.02686 3.93323 6.0003 3.50541 7.28997 3.50541C8.56723 3.50541 9.57168 3.95803 10.3033 4.86328V0.585066C10.3033 0.46106 10.3405 0.361856 10.4149 0.287452C10.5017 0.200648 10.6071 0.157246 10.7311 0.157246H11.624C11.748 0.157246 11.8472 0.200648 11.9216 0.287452C12.0084 0.361856 12.0518 0.46106 12.0518 0.585066V12.9361C12.0518 13.0601 12.0084 13.1655 11.9216 13.2523C11.8472 13.3267 11.748 13.3639 11.624 13.3639H10.7869C10.6629 13.3639 10.5575 13.3267 10.4707 13.2523C10.3963 13.1655 10.3591 13.0601 10.3591 12.9361V12.1548C9.63988 13.0849 8.61683 13.5499 7.28997 13.5499ZM7.68059 12.0432C8.53623 12.0432 9.17486 11.7642 9.59648 11.2062C10.0305 10.6358 10.2661 9.95992 10.3033 9.17869C10.3157 9.04228 10.3219 8.80667 10.3219 8.47185C10.3219 8.12463 10.3157 7.88282 10.3033 7.74642C10.2785 7.01478 10.0429 6.37615 9.59648 5.83052C9.15006 5.2849 8.51143 5.01208 7.68059 5.01208C6.80014 5.01208 6.15531 5.2849 5.74609 5.83052C5.34927 6.37615 5.13226 7.09538 5.09506 7.98823L5.07646 8.52765C5.07646 10.8714 5.9445 12.0432 7.68059 12.0432Z" fill="#2F2F2F"/>
<path d="M14.3532 1.88713C14.2292 1.88713 14.1238 1.84993 14.037 1.77552C13.9626 1.68872 13.9254 1.58331 13.9254 1.45931V0.454861C13.9254 0.330854 13.9626 0.225449 14.037 0.138645C14.1238 0.0518403 14.2292 0.00843811 14.3532 0.00843811H15.5251C15.6491 0.00843811 15.7545 0.0518403 15.8413 0.138645C15.9281 0.225449 15.9715 0.330854 15.9715 0.454861V1.45931C15.9715 1.58331 15.9281 1.68872 15.8413 1.77552C15.7545 1.84993 15.6491 1.88713 15.5251 1.88713H14.3532ZM14.502 13.3639C14.378 13.3639 14.2726 13.3267 14.1858 13.2523C14.1114 13.1655 14.0742 13.0601 14.0742 12.9361V4.11924C14.0742 3.99523 14.1114 3.89603 14.1858 3.82162C14.2726 3.73482 14.378 3.69142 14.502 3.69142H15.3949C15.5189 3.69142 15.6181 3.73482 15.6925 3.82162C15.7793 3.89603 15.8227 3.99523 15.8227 4.11924V12.9361C15.8227 13.0601 15.7793 13.1655 15.6925 13.2523C15.6181 13.3267 15.5189 13.3639 15.3949 13.3639H14.502Z" fill="#2F2F2F"/>
<path d="M21.7971 17.4561C20.7802 17.4561 19.9618 17.2825 19.3418 16.9353C18.7217 16.6004 18.2815 16.216 18.0211 15.782C17.7607 15.348 17.6181 14.9574 17.5933 14.6102C17.5809 14.4861 17.6181 14.3807 17.7049 14.2939C17.8041 14.2071 17.9095 14.1637 18.0211 14.1637H18.9139C19.0255 14.1637 19.1185 14.1885 19.1929 14.2381C19.2674 14.3001 19.3294 14.4055 19.379 14.5543C19.5278 14.9512 19.7696 15.2922 20.1044 15.5774C20.4516 15.875 20.9848 16.0238 21.7041 16.0238C22.6217 16.0238 23.2976 15.8254 23.7316 15.4286C24.1656 15.0442 24.3826 14.3559 24.3826 13.3639V12.099C24.0602 12.5082 23.651 12.8369 23.1549 13.0849C22.6589 13.3205 22.0699 13.4383 21.3879 13.4383C20.0734 13.4383 19.0875 13.0229 18.4303 12.192C17.7855 11.3488 17.4445 10.2823 17.4073 8.99268L17.3887 8.47185L17.4073 7.96963C17.4445 6.69236 17.7917 5.63211 18.4489 4.78887C19.1061 3.93323 20.0858 3.50541 21.3879 3.50541C22.6899 3.50541 23.7068 3.98283 24.4384 4.93768V4.13784C24.4384 4.01383 24.4756 3.90843 24.55 3.82162C24.6368 3.73482 24.7422 3.69142 24.8662 3.69142H25.7219C25.8459 3.69142 25.9513 3.73482 26.0381 3.82162C26.1249 3.90843 26.1683 4.01383 26.1683 4.13784V13.1593C26.1683 16.0238 24.7112 17.4561 21.7971 17.4561ZM21.7599 11.9502C22.6031 11.9502 23.2417 11.6712 23.6758 11.1132C24.1098 10.5552 24.3454 9.89172 24.3826 9.12288C24.395 9.01128 24.4012 8.79427 24.4012 8.47185C24.4012 8.16184 24.395 7.95103 24.3826 7.83942C24.3454 7.07058 24.1098 6.40715 23.6758 5.84912C23.2541 5.2911 22.6155 5.01208 21.7599 5.01208C20.8794 5.01208 20.2408 5.2849 19.844 5.83052C19.4472 6.37615 19.2302 7.09538 19.1929 7.98823L19.1743 8.47185L19.1929 8.97408C19.2302 9.85452 19.4472 10.5738 19.844 11.1318C20.2408 11.6774 20.8794 11.9502 21.7599 11.9502Z" fill="#2F2F2F"/>
<path d="M28.4688 1.88713C28.3448 1.88713 28.2394 1.84993 28.1526 1.77552C28.0782 1.68872 28.041 1.58331 28.041 1.45931V0.454861C28.041 0.330854 28.0782 0.225449 28.1526 0.138645C28.2394 0.0518403 28.3448 0.00843811 28.4688 0.00843811H29.6407C29.7647 0.00843811 29.8701 0.0518403 29.9569 0.138645C30.0437 0.225449 30.0871 0.330854 30.0871 0.454861V1.45931C30.0871 1.58331 30.0437 1.68872 29.9569 1.77552C29.8701 1.84993 29.7647 1.88713 29.6407 1.88713H28.4688ZM28.6177 13.3639C28.4936 13.3639 28.3882 13.3267 28.3014 13.2523C28.227 13.1655 28.1898 13.0601 28.1898 12.9361V4.11924C28.1898 3.99523 28.227 3.89603 28.3014 3.82162C28.3882 3.73482 28.4936 3.69142 28.6177 3.69142H29.5105C29.6345 3.69142 29.7337 3.73482 29.8081 3.82162C29.8949 3.89603 29.9383 3.99523 29.9383 4.11924V12.9361C29.9383 13.0601 29.8949 13.1655 29.8081 13.2523C29.7337 13.3267 29.6345 13.3639 29.5105 13.3639H28.6177Z" fill="#2F2F2F"/>
</g>
<g id="Care">
<path d="M16.525 21.1882C16.4357 21.1882 16.3574 21.1289 16.3321 21.0433C16.212 20.6354 16.0919 20.2813 15.9717 19.9809C15.8376 19.6288 15.6951 19.3186 15.5442 19.0503C15.41 18.7653 15.2507 18.5138 15.0663 18.2958C14.8986 18.0778 14.6974 17.8514 14.4627 17.6167C13.8926 17.0298 13.2386 16.5939 12.5008 16.3088C11.7798 16.007 11.0085 15.8561 10.1869 15.8561C9.14731 15.8561 8.19994 16.0573 7.34479 16.4597C6.5064 16.8621 5.78539 17.4406 5.18176 18.1952C4.59489 18.933 4.14217 19.83 3.82358 20.8864C3.50499 21.9427 3.3457 23.1165 3.3457 24.4076C3.3457 26.0844 3.57207 27.5515 4.02479 28.8091C4.47752 30.0667 5.12307 31.0476 5.96145 31.7518C7.21903 32.7579 8.71973 33.2609 10.4636 33.2609C11.6541 33.2609 12.7524 33.0345 13.7584 32.5818C14.7645 32.1291 15.8041 31.3913 16.8772 30.3685L17.3802 30.8715C16.5083 32.0285 15.3933 32.9256 14.0351 33.5627C12.6937 34.1999 11.2013 34.5185 9.55812 34.5185C8.13286 34.5185 6.83337 34.2837 5.65964 33.8142C4.4859 33.3447 3.47984 32.6908 2.64146 31.8524C1.80308 30.9973 1.14914 29.9744 0.679647 28.7839C0.22692 27.5934 0.000556946 26.2688 0.000556946 24.81C0.000556946 23.15 0.285607 21.6577 0.855707 20.3331C1.42581 18.9916 2.26419 17.8682 3.37085 16.9628C4.24277 16.2585 5.22368 15.7136 6.31358 15.3279C7.40347 14.9255 8.50175 14.7243 9.60842 14.7243C11.0337 14.7243 12.4422 14.959 13.8339 15.4285C14.3034 15.5962 14.6806 15.68 14.9657 15.68C15.2507 15.68 15.4939 15.5962 15.6951 15.4285C15.8769 15.2886 16.0121 15.102 16.1006 14.8688C16.1325 14.7848 16.21 14.7243 16.2998 14.7243H16.5598C16.6669 14.7243 16.755 14.8087 16.7596 14.9157L17.0192 20.9796C17.024 21.0934 16.9332 21.1882 16.8194 21.1882H16.525Z" fill="#3083FF"/>
<path d="M26.3492 31.0979C26.3492 31.7351 26.4079 32.1794 26.5253 32.4309C26.6427 32.6657 26.869 32.783 27.2044 32.783C27.59 32.783 28.0092 32.607 28.462 32.2548V32.9842C27.9757 33.5208 27.5481 33.8897 27.1792 34.0909C26.8103 34.2921 26.3828 34.3927 25.8965 34.3927C25.3096 34.3927 24.8737 34.2334 24.5886 33.9148C24.3204 33.5795 24.1527 33.0262 24.0856 32.2548C23.2137 33.0094 22.4508 33.5543 21.7968 33.8897C21.1429 34.225 20.5057 34.3927 19.8853 34.3927C18.9799 34.3927 18.2421 34.1077 17.672 33.5376C17.1186 32.9675 16.842 32.2297 16.842 31.3242C16.842 30.8715 16.9258 30.4188 17.0935 29.9661C17.2779 29.4966 17.5378 29.1193 17.8732 28.8342C18.175 28.566 18.4517 28.3396 18.7032 28.1552C18.9715 27.9539 19.3152 27.7527 19.7344 27.5515C20.1536 27.3335 20.6985 27.0904 21.3692 26.8221C22.0146 26.564 22.8619 26.2204 23.9109 25.7915C23.9861 25.7608 24.0353 25.6876 24.0353 25.6063V23.9046C24.0353 23.1165 23.8425 22.5212 23.4568 22.1188C23.0879 21.7164 22.5514 21.5152 21.8471 21.5152C21.2603 21.5152 20.7656 21.6577 20.3632 21.9427C19.9775 22.211 19.7847 22.538 19.7847 22.9237C19.7847 23.0746 19.8015 23.2674 19.835 23.5021C19.8853 23.7369 19.9105 23.9297 19.9105 24.0806C19.9105 24.416 19.7763 24.701 19.508 24.9358C19.2565 25.1705 18.9631 25.2879 18.6277 25.2879C18.2924 25.2879 17.9989 25.1705 17.7474 24.9358C17.5127 24.6843 17.3953 24.3908 17.3953 24.0555C17.3953 23.6866 17.4959 23.3093 17.6971 22.9237C17.9151 22.538 18.2085 22.1943 18.5774 21.8924C18.9631 21.5571 19.4745 21.2972 20.1117 21.1127C20.7656 20.9283 21.4699 20.8361 22.2244 20.8361C23.0963 20.8361 23.8257 20.987 24.4126 21.2888C25.0162 21.5739 25.4773 21.9763 25.7959 22.4961C25.9971 22.8314 26.1396 23.2255 26.2235 23.6782C26.3073 24.1142 26.3492 24.7094 26.3492 25.464V31.0979ZM24.0353 26.7309C24.0353 26.5919 23.8971 26.4954 23.767 26.5441C23.0093 26.828 22.3526 27.1051 21.7968 27.3755C21.1932 27.6605 20.6985 27.9623 20.3129 28.2809C19.944 28.5827 19.6757 28.9097 19.508 29.2618C19.3404 29.6139 19.2565 29.9996 19.2565 30.4188V30.5445C19.2565 30.8464 19.3068 31.1398 19.4074 31.4248C19.508 31.6931 19.6422 31.9279 19.8099 32.1291C19.9943 32.3303 20.2039 32.4896 20.4386 32.607C20.6734 32.7243 20.9165 32.783 21.168 32.783C21.4699 32.783 21.8052 32.7243 22.1741 32.607C22.5597 32.4728 22.9203 32.3135 23.2556 32.1291C23.591 31.9446 23.8006 31.7518 23.8844 31.5506C23.985 31.3494 24.0353 31.0308 24.0353 30.5948V26.7309Z" fill="#3083FF"/>
<path d="M26.1631 22.6366C26.1631 22.5523 26.216 22.477 26.2954 22.4486C26.6638 22.3169 27.0053 22.1986 27.3201 22.0937C27.6722 21.9595 28.0076 21.8338 28.3261 21.7164C28.6615 21.5822 28.9885 21.4565 29.307 21.3391C29.6271 21.2111 29.97 21.0755 30.3358 20.9322C30.37 20.9188 30.4077 20.917 30.443 20.9271C30.515 20.9477 30.5646 21.0135 30.5646 21.0883V23.6027C30.9167 23.0829 31.2353 22.6554 31.5204 22.32C31.8054 21.9679 32.0821 21.6912 32.3504 21.49C32.6187 21.272 32.8786 21.1211 33.1301 21.0373C33.3984 20.9535 33.6834 20.9115 33.9852 20.9115C34.4715 20.9115 34.8571 21.0541 35.1422 21.3391C35.4272 21.6074 35.5698 21.9679 35.5698 22.4206C35.5698 22.8398 35.4692 23.1668 35.2679 23.4015C35.0667 23.6195 34.7985 23.7285 34.4631 23.7285C34.2787 23.7285 34.0942 23.695 33.9098 23.6279C33.7421 23.5441 33.5409 23.3848 33.3061 23.15C33.1552 23.0159 33.0127 22.9153 32.8786 22.8482C32.7444 22.7811 32.6354 22.7476 32.5516 22.7476C32.3504 22.7476 32.1324 22.8314 31.8976 22.9991C31.6797 23.15 31.4701 23.3428 31.2689 23.5776C31.0676 23.8123 30.9 24.0639 30.7658 24.3321C30.6317 24.6004 30.5646 24.8519 30.5646 25.0867V31.5506C30.5646 31.953 30.5982 32.2884 30.6652 32.5567C30.7323 32.8249 30.8581 33.0429 31.0425 33.2106C31.2269 33.3615 31.4785 33.4789 31.797 33.5627C32.1156 33.6466 32.5181 33.6969 33.0043 33.7136V34.1161H26.0877V33.7136C26.5404 33.6298 26.9009 33.546 27.1692 33.4621C27.4542 33.3615 27.6638 33.2441 27.798 33.11C27.9489 32.9759 28.0411 32.7998 28.0746 32.5818C28.1249 32.3471 28.1501 32.0536 28.1501 31.7015V24.5333C28.1501 23.8962 28.0746 23.4518 27.9237 23.2003C27.7728 22.932 27.5213 22.7979 27.1692 22.7979C26.9847 22.7979 26.8171 22.8063 26.6661 22.823C26.5919 22.8323 26.5075 22.8467 26.4128 22.8663C26.2853 22.8925 26.1631 22.7976 26.1631 22.6675V22.6366Z" fill="#3083FF"/>
<path d="M44.957 29.5418C45.0595 29.5817 45.1107 29.6972 45.0697 29.7993C44.4734 31.2838 43.676 32.4125 42.6776 33.1855C41.6547 33.9903 40.4475 34.3927 39.0558 34.3927C38.2341 34.3927 37.488 34.2418 36.8173 33.94C36.1633 33.6382 35.6016 33.2106 35.1321 32.6573C34.6626 32.1039 34.3021 31.4332 34.0506 30.6452C33.7991 29.8571 33.6733 28.9684 33.6733 27.9791C33.6733 26.9227 33.8159 25.9586 34.1009 25.0867C34.4027 24.2148 34.8135 23.4686 35.3333 22.8482C35.8699 22.211 36.5071 21.7164 37.2449 21.3643C37.9826 21.0121 38.7959 20.8361 39.6845 20.8361C40.4391 20.8361 41.1266 20.9786 41.747 21.2637C42.3841 21.5487 42.9207 21.9511 43.3567 22.4709C43.5411 22.7057 43.692 22.9404 43.8094 23.1752C43.9435 23.4099 44.0525 23.6698 44.1364 23.9549C44.237 24.2399 44.3208 24.5585 44.3879 24.9106C44.4434 25.2021 44.4989 25.5282 44.5545 25.8886C44.573 26.0093 44.4794 26.1179 44.3573 26.1179H35.7609C35.7944 27.0401 35.8699 27.803 35.9873 28.4067C36.1214 28.9935 36.331 29.5636 36.6161 30.117C37.4377 31.6596 38.645 32.4309 40.2379 32.4309C41.1601 32.4309 41.9566 32.2045 42.6273 31.7518C43.2851 31.3186 43.943 30.5937 44.6008 29.577C44.6528 29.4966 44.7541 29.4629 44.8434 29.4976L44.957 29.5418ZM41.4396 25.1621C41.5617 25.1621 41.6555 25.0535 41.6354 24.933C41.4487 23.8155 41.1589 23.0367 40.7661 22.5967C40.3636 22.1104 39.7265 21.8673 38.8545 21.8673C37.9659 21.8673 37.27 22.1272 36.767 22.647C36.2807 23.1668 35.9621 24.0052 35.8112 25.1621H41.4396Z" fill="#3083FF"/>
</g>
<rect id="Rectangle 7" x="13.8003" y="1.52588e-05" width="2.32689" height="2.32689" rx="0.2" fill="#3083FF"/>
<rect id="Rectangle 8" x="27.9997" y="1.52588e-05" width="2.32689" height="2.32689" rx="0.2" fill="#3083FF"/>
</g>
</svg>
